<svg width="72" height="85" viewBox="0 0 72 85" fill="none" xmlns="http://www.w3.org/2000/svg">
<path d="M41.1658 2.03027C38.4592 -0.676755 33.5408 -0.676755 30.8342 2.03027C26.7071 6.1582 20.4741 10.862 13.5 10.862C9.7659 10.862 6.24402 9.85577 3.14442 8.07485C1.82214 7.31525 0 8.19688 0 9.72184V46.3934C0 54.8739 3.90348 62.7709 10.3576 67.3474L32.3573 82.9476C34.5773 84.5217 37.4227 84.5219 39.6427 82.9476L61.6424 67.3476C68.0965 62.7709 72 54.8739 72 46.3934V9.72184C72 8.19688 70.1779 7.31525 68.8556 8.07485C65.756 9.85577 62.2343 10.862 58.5 10.862C51.5259 10.862 45.2929 6.1582 41.1658 2.03027Z" fill="white"/>
<path d="M16.2002 44.3281C16.2002 55.3738 25.065 64.3281 36.0002 64.3281C46.9354 64.3281 55.8002 55.3738 55.8002 44.3281V43.4497C55.8002 42.5541 55.0815 41.8281 54.1948 41.8281H17.8056C16.9189 41.8281 16.2002 42.5541 16.2002 43.4497V44.3281Z" fill="#E6C100"/>
<path d="M26.0996 29.3282C26.0996 34.851 30.5319 39.3281 35.9996 39.3281C41.4673 39.3281 45.8996 34.851 45.8996 29.3282C45.8996 23.8053 41.4673 19.3281 35.9996 19.3281C30.5319 19.3281 26.0996 23.8053 26.0996 29.3282Z" fill="#E6C100"/>
</svg>
