<svg width="22" height="14" viewBox="0 0 22 14" fill="none" xmlns="http://www.w3.org/2000/svg">
<path fill-rule="evenodd" clip-rule="evenodd" d="M19.6035 13.7411H2.40465C2.19475 13.7444 1.98624 13.7063 1.79113 13.6288C1.59602 13.5513 1.41814 13.4361 1.26773 13.2896C1.11732 13.1432 0.99734 12.9684 0.91469 12.7754C0.832041 12.5825 0.788351 12.3751 0.786133 12.1651V1.6618C0.799479 1.24302 0.976416 0.846142 1.27899 0.556306C1.58157 0.26647 1.98568 0.106758 2.40465 0.111428H19.6121C20.0296 0.108994 20.4315 0.269701 20.7322 0.559303C21.033 0.848904 21.2087 1.2445 21.2221 1.6618V12.1396C21.2221 12.3513 21.1801 12.561 21.0985 12.7564C21.017 12.9518 20.8975 13.1291 20.747 13.2781C20.5965 13.427 20.4179 13.5446 20.2216 13.6241C20.0254 13.7036 19.8153 13.7433 19.6035 13.7411Z" fill="#212121"/>
<path d="M19.0921 10.333H15.6847C15.4495 10.333 15.2588 10.5237 15.2588 10.7589V11.6108C15.2588 11.846 15.4495 12.0367 15.6847 12.0367H19.0921C19.3274 12.0367 19.518 11.846 19.518 11.6108V10.7589C19.518 10.5237 19.3274 10.333 19.0921 10.333Z" fill="white"/>
<path fill-rule="evenodd" clip-rule="evenodd" d="M0.777344 6.07411H21.2218V3.51855H0.777344V6.07411Z" fill="white"/>
</svg>
