<svg width="92" height="94" viewBox="0 0 92 94" fill="none" xmlns="http://www.w3.org/2000/svg">
<g clip-path="url(#clip0_591_11501)">
<path d="M91.9998 13.0705C91.9998 8.97978 90.8585 5.74251 88.6082 3.45053C79.5746 -5.74502 55.8238 4.03289 34.5279 25.7184C33.7541 26.5065 33.0469 27.3466 32.3668 28.2077C32.1435 28.1133 31.8867 28.0291 31.5913 27.9588C25.4581 26.4943 5.77374 29.911 0.0434286 53.3019C-0.104043 53.9015 0.131835 54.5297 0.632947 54.8755C0.875885 55.0447 1.15664 55.1278 1.43737 55.1278C1.7335 55.1278 2.02977 55.0346 2.28105 54.8481C10.0588 49.0835 16.2984 46.765 21.7453 47.6185C21.3693 48.3148 20.9879 48.994 20.5938 49.6429C20.2413 50.2239 20.327 50.9755 20.8 51.4573L23.0557 53.7545L18.8334 58.0525C18.5624 58.3279 18.4109 58.7021 18.4109 59.0923C18.4109 59.4825 18.5624 59.8568 18.8334 60.1323L32.9628 74.5213C33.2434 74.8067 33.6098 74.9501 33.9776 74.9501C34.3454 74.9501 34.7119 74.8067 34.9926 74.5213L39.2204 70.2154L41.4825 72.5191C41.7605 72.8015 42.1268 72.9479 42.4975 72.9479C42.7571 72.9479 43.0182 72.8761 43.2512 72.7298C43.8454 72.3554 44.4621 71.9919 45.0966 71.634C46.0323 77.2268 43.7657 83.6427 38.0333 91.6644C37.6767 92.1636 37.6641 92.8376 38.0008 93.3499C38.2718 93.7628 38.7225 93.9995 39.1942 93.9995C39.3093 93.9995 39.4258 93.9851 39.5409 93.9566C62.4553 88.1346 65.8412 68.0927 64.4291 61.8419C64.3426 61.4604 64.2297 61.16 64.1073 60.8937C65.0208 60.1562 65.9108 59.3856 66.7427 58.5386C82.0861 42.9146 91.9998 25.0659 91.9998 13.0705ZM23.0826 44.8681C17.4745 43.6604 11.3117 45.34 3.99369 50.1005C7.59303 39.8953 14.1489 35.0745 19.2924 32.8039C23.1487 31.1029 26.6581 30.6267 28.9042 30.6267C29.5066 30.6267 30.0161 30.6611 30.4189 30.7142L23.0826 44.8681ZM33.9776 71.4073L21.8853 59.0923L25.0916 55.8292L35.5386 66.4664L37.1839 68.1414L33.9776 71.4073ZM59.7038 74.279C57.4801 79.5414 52.7438 86.2469 42.6883 89.9231C47.3546 82.4775 49.0039 76.2066 47.8206 70.4923L61.7266 63.0166C61.9765 64.9472 61.7941 69.3306 59.7038 74.279ZM49.8658 65.8954C47.3378 67.1389 44.9301 68.3207 42.7205 69.6316L23.6273 50.1893C24.6585 48.3854 25.6116 46.4263 26.5771 44.4027L32.4144 33.1417C33.6362 31.2094 34.9898 29.3953 36.5578 27.7982C56.0399 7.95857 78.943 -2.23809 86.5784 5.53028C88.2685 7.2515 89.1249 9.78876 89.1249 13.0705C89.1249 24.1522 79.3137 41.5892 64.7126 56.459C60.6459 60.5997 55.1654 63.2919 49.8658 65.8954Z" fill="#E6C100"/>
<path d="M61.4159 18.8785C59.7778 20.5439 58.875 22.7599 58.875 25.1178C58.875 27.4773 59.7778 29.6933 61.4159 31.3587C63.1047 33.0755 65.3227 33.9348 67.5406 33.9348C69.7588 33.9348 71.9768 33.0755 73.6641 31.3587C75.3024 29.6933 76.2036 27.4773 76.2036 25.1178C76.2036 22.7599 75.3024 20.5439 73.6641 18.8785C70.2894 15.4448 64.7934 15.4448 61.4159 18.8785ZM71.6371 29.276C69.3769 31.5737 65.7031 31.5737 63.4431 29.276C62.3523 28.1657 61.7499 26.6898 61.7499 25.1178C61.7499 23.5473 62.3523 22.0713 63.4431 20.9611C64.573 19.8122 66.0569 19.2385 67.5406 19.2385C69.0246 19.2385 70.507 19.8122 71.6371 20.9611C72.7277 22.0713 73.3285 23.5473 73.3285 25.1178C73.3285 26.6898 72.7277 28.1657 71.6371 29.276Z" fill="#E6C100"/>
<path d="M23.6679 69.2476C23.1078 68.6725 22.1982 68.6725 21.6353 69.2449L7.26735 83.8764C6.7057 84.4486 6.70297 85.3782 7.26447 85.9533C7.54521 86.2416 7.91306 86.385 8.28223 86.385C8.64862 86.385 9.01649 86.2416 9.29722 85.9562L23.6652 71.3246C24.2267 70.7523 24.2296 69.8229 23.6679 69.2476Z" fill="#E6C100"/>
<path d="M8.229 76.3361C8.59543 76.3361 8.96314 76.1926 9.24404 75.9071L18.7057 66.2715C19.2671 65.6991 19.2686 64.7697 18.7084 64.1946C18.1484 63.6193 17.2388 63.6179 16.6758 64.1915L7.21399 73.8275C6.6525 74.3997 6.65106 75.3293 7.21126 75.9044C7.49199 76.1926 7.85986 76.3361 8.229 76.3361Z" fill="#E6C100"/>
<path d="M26.5965 74.2941L17.1349 83.93C16.5734 84.5022 16.572 85.4317 17.1322 86.0069C17.4129 86.295 17.7806 86.4386 18.1499 86.4386C18.5162 86.4386 18.8841 86.295 19.1647 86.0098L28.6265 76.3739C29.1881 75.8015 29.1894 74.8721 28.6292 74.297C28.0692 73.7219 27.1594 73.7204 26.5965 74.2941Z" fill="#E6C100"/>
</g>
<defs>
<clipPath id="clip0_591_11501">
<rect width="92" height="94" fill="white"/>
</clipPath>
</defs>
</svg>
