<svg width="17" height="18" viewBox="0 0 17 18" fill="none" xmlns="http://www.w3.org/2000/svg">
<path d="M9.30806 15.4588L8.78984 16.0009H8.78984L9.30806 15.4588ZM8.69933 14.8769L9.21755 14.3348H9.21755L8.69933 14.8769ZM14.795 14.0187L15.5215 14.2047L14.795 14.0187ZM7.36837 13.6019C6.95416 13.6019 6.61837 13.9376 6.61837 14.3519C6.61837 14.7661 6.95416 15.1019 7.36837 15.1019V13.6019ZM16.0158 7.12055C15.9696 6.70893 15.5984 6.41271 15.1868 6.45894C14.7752 6.50517 14.479 6.87633 14.5252 7.28795L16.0158 7.12055ZM0.887793 10.6276L1.62733 10.5028V10.5028L0.887793 10.6276ZM0.879347 10.5776L0.139809 10.7024L0.139809 10.7024L0.879347 10.5776ZM0.879347 8.05203L1.61889 8.17686L1.61889 8.17686L0.879347 8.05203ZM0.887793 8.00199L0.148255 7.87715L0.148255 7.87716L0.887793 8.00199ZM8.69933 3.75269L9.21755 4.29486L9.21755 4.29486L8.69933 3.75269ZM9.30806 3.17086L8.78984 2.62869L8.78984 2.62869L9.30806 3.17086ZM3.79958 4.71564L3.56511 4.00323H3.56511L3.79958 4.71564ZM3.56478 14.6263C3.95817 14.756 4.3822 14.5422 4.51188 14.1488C4.64155 13.7554 4.42776 13.3314 4.03437 13.2017L3.56478 14.6263ZM16.7408 2.03033C17.0337 1.73744 17.0337 1.26256 16.7408 0.96967C16.4479 0.676777 15.9731 0.676777 15.6802 0.96967L16.7408 2.03033ZM0.969183 15.6807C0.676289 15.9735 0.676288 16.4484 0.96918 16.7413C1.26207 17.0342 1.73695 17.0342 2.02984 16.7413L0.969183 15.6807ZM9.82628 14.9166L9.21755 14.3348L8.18111 15.4191L8.78984 16.0009L9.82628 14.9166ZM8.78984 16.0009C10.9676 18.0825 14.7683 17.1464 15.5215 14.2047L14.0684 13.8326C13.6211 15.5793 11.2382 16.2661 9.82628 14.9166L8.78984 16.0009ZM7.36837 15.1019C7.68156 15.1019 7.97351 15.2207 8.18111 15.4191L9.21755 14.3348C8.72212 13.8612 8.05544 13.6019 7.36837 13.6019V15.1019ZM14.5252 7.28795C14.7704 9.47164 14.6183 11.6854 14.0684 13.8326L15.5215 14.2047C16.1165 11.8814 16.2813 9.48484 16.0158 7.12055L14.5252 7.28795ZM6.53881 5.02778H7.36837V3.52778H6.53881V5.02778ZM1.62733 10.5028L1.61889 10.4528L0.139809 10.7024L0.148255 10.7525L1.62733 10.5028ZM1.61889 8.17686L1.62733 8.12682L0.148255 7.87716L0.139809 7.92719L1.61889 8.17686ZM9.21755 4.29486L9.82628 3.71303L8.78984 2.62869L8.18111 3.21052L9.21755 4.29486ZM1.61889 10.4528C1.49162 9.69883 1.49162 8.9308 1.61889 8.17686L0.139809 7.92719C-0.0153531 8.84641 -0.0153528 9.78323 0.139809 10.7024L1.61889 10.4528ZM4.03405 5.42805C4.83859 5.16325 5.68539 5.02778 6.53881 5.02778V3.52778C5.52703 3.52778 4.52188 3.68833 3.56511 4.00323L4.03405 5.42805ZM4.03437 13.2017L4.03208 13.2009L3.56248 14.6255L3.56478 14.6263L4.03437 13.2017ZM4.03212 13.2009C2.74359 12.7761 1.83428 11.7288 1.62733 10.5028L0.148255 10.7525C0.453547 12.5611 1.77931 14.0376 3.56244 14.6255L4.03212 13.2009ZM7.36837 5.02778C8.05544 5.02778 8.72212 4.76841 9.21755 4.29486L8.18111 3.21052C7.97351 3.40896 7.68156 3.52778 7.36837 3.52778V5.02778ZM3.56511 4.00323C1.78063 4.59055 0.4537 6.06763 0.148255 7.87715L1.62733 8.12682C1.83438 6.90021 2.7445 5.85247 4.03405 5.42805L3.56511 4.00323ZM9.82627 3.71303C11.0314 2.56111 13.0012 2.88877 13.7926 4.15106L15.0635 3.35432C13.7758 1.3003 10.6928 0.809784 8.78984 2.62869L9.82627 3.71303ZM15.6802 0.96967L3.26695 13.3829L4.32761 14.4436L16.7408 2.03033L15.6802 0.96967ZM3.26695 13.3829L0.969183 15.6807L2.02984 16.7413L4.32761 14.4436L3.26695 13.3829Z" fill="#363853"/>
</svg>
