<svg width="17" height="17" viewBox="0 0 17 17" fill="none" xmlns="http://www.w3.org/2000/svg">
<path d="M13.0192 4.86952C12.9719 4.86201 12.9237 4.86201 12.8764 4.86952C12.375 4.85142 11.9003 4.63945 11.5526 4.27841C11.2049 3.91737 11.0115 3.43555 11.0131 2.93476C11.0131 1.86239 11.8772 1 12.9515 1C13.4656 1 13.9587 1.20384 14.3222 1.56668C14.6857 1.92952 14.8899 2.42163 14.8899 2.93476C14.8886 3.4359 14.6931 3.9171 14.3444 4.2777C13.9957 4.6383 13.5209 4.85035 13.0192 4.86952ZM12.2453 10.3288C13.2746 10.5013 14.4091 10.3213 15.2055 9.7889C16.2648 9.08399 16.2648 7.92913 15.2055 7.22422C14.4016 6.69179 13.2521 6.51181 12.2228 6.69179M3.98084 4.86952C4.02592 4.86202 4.07851 4.86202 4.12359 4.86952C4.62499 4.85142 5.09971 4.63945 5.4474 4.27841C5.7951 3.91737 5.98854 3.43555 5.98685 2.93476C5.98685 1.86239 5.12284 1 4.04846 1C3.53437 1 3.04133 1.20384 2.67781 1.56668C2.31429 1.92952 2.11007 2.42163 2.11007 2.93476C2.11758 3.98463 2.94403 4.83202 3.98084 4.86952ZM4.7547 10.3288C3.72539 10.5013 2.59091 10.3213 1.79452 9.7889C0.735162 9.08399 0.735162 7.92913 1.79452 7.22422C2.59842 6.69179 3.74793 6.51181 4.77724 6.69179M8.51127 10.4713C8.46398 10.4638 8.41581 10.4638 8.36852 10.4713C7.86712 10.4532 7.39241 10.2413 7.04471 9.88021C6.69701 9.51917 6.50357 9.03734 6.50526 8.53656C6.50526 7.46419 7.36927 6.6018 8.44365 6.6018C8.95775 6.6018 9.45078 6.80564 9.8143 7.16848C10.1778 7.53131 10.382 8.02343 10.382 8.53656C10.3745 9.58643 9.54808 10.4413 8.51127 10.4713ZM6.32494 12.8335C5.26559 13.5384 5.26559 14.6933 6.32494 15.3982C7.52705 16.2006 9.49549 16.2006 10.6976 15.3982C11.757 14.6933 11.757 13.5384 10.6976 12.8335C9.50301 12.0386 7.52705 12.0386 6.32494 12.8335Z" fill="#021869"/>
<path d="M12.2453 10.3288C13.2746 10.5013 14.4091 10.3213 15.2055 9.7889C16.2648 9.08399 16.2648 7.92913 15.2055 7.22422C14.4016 6.69179 13.2521 6.51181 12.2228 6.69179M4.7547 10.3288C3.72539 10.5013 2.59091 10.3213 1.79452 9.7889C0.735162 9.08399 0.735162 7.92913 1.79452 7.22422C2.59842 6.69179 3.74793 6.51181 4.77724 6.69179M13.0192 4.86952C12.9719 4.86201 12.9237 4.86201 12.8764 4.86952C12.375 4.85142 11.9003 4.63945 11.5526 4.27841C11.2049 3.91737 11.0115 3.43555 11.0131 2.93476C11.0131 1.86239 11.8772 1 12.9515 1C13.4656 1 13.9587 1.20384 14.3222 1.56668C14.6857 1.92952 14.8899 2.42163 14.8899 2.93476C14.8886 3.4359 14.6931 3.9171 14.3444 4.2777C13.9957 4.6383 13.5209 4.85035 13.0192 4.86952ZM3.98084 4.86952C4.02592 4.86202 4.07851 4.86202 4.12359 4.86952C4.62499 4.85142 5.09971 4.63945 5.4474 4.27841C5.7951 3.91737 5.98855 3.43555 5.98685 2.93476C5.98685 1.86239 5.12284 1 4.04846 1C3.53437 1 3.04133 1.20384 2.67781 1.56668C2.31429 1.92952 2.11007 2.42163 2.11007 2.93476C2.11758 3.98463 2.94403 4.83202 3.98084 4.86952ZM8.51127 10.4713C8.46398 10.4638 8.41581 10.4638 8.36852 10.4713C7.86712 10.4532 7.39241 10.2413 7.04471 9.88021C6.69701 9.51917 6.50357 9.03735 6.50526 8.53656C6.50526 7.46419 7.36927 6.6018 8.44365 6.6018C8.95775 6.6018 9.45078 6.80564 9.8143 7.16848C10.1778 7.53131 10.382 8.02343 10.382 8.53656C10.3745 9.58643 9.54808 10.4413 8.51127 10.4713ZM6.32494 12.8335C5.26559 13.5384 5.26559 14.6933 6.32494 15.3982C7.52705 16.2006 9.49549 16.2006 10.6976 15.3982C11.757 14.6933 11.757 13.5384 10.6976 12.8335C9.50301 12.0386 7.52705 12.0386 6.32494 12.8335Z" stroke="#021869" stroke-linecap="round" stroke-linejoin="round"/>
</svg>
