<svg width="63" height="57" viewBox="0 0 63 57" fill="none" xmlns="http://www.w3.org/2000/svg">
<path d="M49.4722 0H13.5279L0 16.7508L31.5071 57L63 16.7507L49.4722 0ZM59.5294 15.7355H42.715L49.1778 2.91748L59.5294 15.7355ZM47.3012 2.05065L40.9581 14.6315L33.3351 2.05065H47.3012ZM39.213 15.7355H25.2345L31.5893 3.15338L39.213 15.7355ZM29.8318 2.05065L23.477 14.6328L15.8533 2.05065H29.8318ZM13.9038 2.81677L21.7313 15.7355H3.47078L13.9038 2.81677ZM3.42969 17.7861H22.7146L29.6053 51.2248L3.42969 17.7861ZM24.8269 17.7861H39.7224L31.5987 50.6465L24.8269 17.7861ZM41.8531 17.7861H59.571L33.6691 50.8899L41.8531 17.7861Z" fill="#E6C100"/>
</svg>
