<svg width="78" height="78" viewBox="0 0 78 78" fill="none" xmlns="http://www.w3.org/2000/svg">
<g clip-path="url(#clip0_585_1103)">
<path d="M76.8792 31.597L70.0364 30.9129C69.2948 28.0578 68.1627 25.3281 66.6616 22.7754L71.0191 17.4495C71.4239 16.9546 71.3883 16.2333 70.936 15.7813L62.2187 7.06386C61.7664 6.61185 61.0455 6.57559 60.5504 6.98068L55.2244 11.3382C52.6716 9.83713 49.9422 8.70491 47.087 7.96345L46.4028 1.12061C46.3391 0.484118 45.8036 -0.000488281 45.1642 -0.000488281H32.8361C32.1965 -0.000488281 31.6612 0.484118 31.5975 1.12015L30.9133 7.96299C28.0583 8.7046 25.3287 9.83682 22.7759 11.3377L17.4499 6.98022C16.9551 6.57529 16.2338 6.61109 15.7816 7.0634L7.06404 15.7811C6.61173 16.2334 6.57608 16.9545 6.98086 17.4493L11.3384 22.7753C9.83731 25.3278 8.70524 28.0575 7.96363 30.9127L1.1208 31.5969C0.484606 31.6607 0 32.1962 0 32.8356V45.1639C0 45.8033 0.484606 46.3389 1.12095 46.4024L7.96378 47.0866C8.7054 49.9417 9.83746 52.6714 11.3385 55.2241L6.98101 60.55C6.57624 61.0448 6.61188 61.7662 7.06419 62.2182L15.7816 70.9356C16.2339 71.3879 16.955 71.4239 17.4499 71.0188L22.7759 66.6613C25.3287 68.1624 28.0581 69.2946 30.9133 70.036L31.5975 76.8789C31.6612 77.5149 32.1965 77.9995 32.8361 77.9995H45.1642C45.8038 77.9995 46.3391 77.5149 46.4028 76.8789L47.087 70.036C49.942 69.2944 52.6716 68.1622 55.2244 66.6613L60.5504 71.0188C61.045 71.4236 61.7664 71.3878 62.2187 70.9356L70.9361 62.2182C71.3884 61.7659 71.4241 61.0448 71.0193 60.55L66.6618 55.2241C68.1628 52.6716 69.2949 49.9419 70.0365 47.0866L76.8793 46.4024C77.5157 46.3389 78.0003 45.8033 78.0003 45.1639V32.8356C78.0001 32.1962 77.5155 31.6607 76.8792 31.597ZM75.5108 44.0375L68.9131 44.6973C68.3819 44.7504 67.9436 45.1363 67.824 45.6569C67.0902 48.8482 65.8326 51.8809 64.0861 54.6705C63.8029 55.1231 63.8398 55.7059 64.1778 56.1191L68.3793 61.2545L61.2548 68.3788L56.1196 64.1772C55.7066 63.8388 55.1236 63.8021 54.6709 64.0856C51.8811 65.8319 48.8485 67.0899 45.6572 67.8237C45.1368 67.9433 44.7508 68.3814 44.6976 68.9128L44.0376 75.5105H33.9622L33.3024 68.9128C33.2492 68.3816 32.8633 67.9433 32.3428 67.8237C29.1516 67.0899 26.1189 65.8323 23.3291 64.0856C22.8766 63.8021 22.2936 63.8393 21.8804 64.1772L16.7452 68.3788L9.62068 61.2545L13.8222 56.1191C14.1602 55.7058 14.1972 55.1231 13.9139 54.6705C12.1676 51.8809 10.9097 48.8483 10.176 45.6567C10.0562 45.1363 9.61809 44.7503 9.08686 44.6971L2.48915 44.0373V33.9619L9.08686 33.3021C9.61809 33.2489 10.0564 32.863 10.176 32.3425C10.9098 29.1512 12.1674 26.1184 13.9139 23.3287C14.1972 22.8761 14.1602 22.2932 13.8222 21.8801L9.62068 16.7447L16.7452 9.62034L21.8804 13.822C22.2934 14.1602 22.8766 14.1971 23.3291 13.9136C26.1189 12.1672 29.1515 10.9093 32.3428 10.1755C32.8632 10.0559 33.2492 9.61775 33.3024 9.08638L33.9624 2.48897H44.0378L44.6976 9.08668C44.7508 9.61791 45.1366 10.0562 45.6572 10.1758C48.8484 10.9096 51.8811 12.1672 54.6708 13.9139C55.1234 14.1974 55.7063 14.1603 56.1194 13.8223L61.2546 9.6205L68.3792 16.7449L64.1777 21.8802C63.8396 22.2935 63.8026 22.8763 64.086 23.3289C65.8323 26.1184 67.0902 29.151 67.8239 32.3426C67.9436 32.863 68.3818 33.2491 68.913 33.3022L75.5105 33.962V44.0375H75.5108Z" fill="white"/>
<path d="M39.0005 26.1387C31.9086 26.1387 26.1387 31.9084 26.1387 39.0005C26.1387 46.0925 31.9086 51.8623 39.0005 51.8623C46.0924 51.8623 51.8623 46.0925 51.8623 39.0005C51.8623 31.9084 46.0924 26.1387 39.0005 26.1387ZM49.2956 37.7557H44.0952C43.9862 34.6043 43.4623 31.4541 42.4817 29.2308C46.1175 30.5304 48.8206 33.8046 49.2956 37.7557ZM35.5205 29.2305C34.5394 31.454 34.0147 34.6037 33.9058 37.7558H28.7055C29.1804 33.8043 31.8839 30.5297 35.5205 29.2305ZM28.7055 40.2451H33.9058C34.0147 43.3974 34.5395 46.547 35.5211 48.7706C31.884 47.4714 29.1804 44.1968 28.7055 40.2451ZM40.5577 46.8214C39.8586 48.9187 39.1406 49.3728 39.0003 49.3728C38.86 49.3728 38.1422 48.9188 37.4429 46.8214C36.8501 45.0429 36.4868 42.7425 36.3958 40.2451H41.6046C41.5137 42.7423 41.1507 45.0429 40.5577 46.8214ZM36.3963 37.7557C36.4873 35.2583 36.8504 32.9579 37.4434 31.1794C38.1423 29.0821 38.8603 28.628 39.0006 28.628C39.1408 28.628 39.8588 29.082 40.558 31.1794C41.1508 32.9579 41.5141 35.2583 41.6051 37.7557H36.3963ZM42.4811 48.7701C43.462 46.5468 43.9864 43.3968 44.0952 40.2451H49.2954C48.8206 44.1963 46.1174 47.4706 42.4811 48.7701Z" fill="white"/>
<path d="M39.001 11.8662C32.2084 11.8662 25.7088 14.3884 20.6993 18.9683C15.7225 23.5182 12.6302 29.7062 11.9922 36.3924C11.9268 37.0766 12.4286 37.6844 13.1128 37.7498C13.8016 37.8154 14.405 37.3133 14.4702 36.6288C15.6821 23.9309 26.228 14.3555 39.001 14.3555C52.59 14.3555 63.6457 25.4111 63.6457 39.0002C63.6457 52.5893 52.59 63.6449 39.001 63.6449C26.2277 63.6449 15.6818 54.0692 14.4702 41.371C14.405 40.6867 13.795 40.185 13.113 40.25C12.4285 40.3154 11.9268 40.9229 11.992 41.6074C12.63 48.2937 15.722 54.4819 20.6988 59.0319C25.7086 63.6118 32.2082 66.1342 39.0008 66.1342C53.9625 66.1342 66.135 53.9619 66.135 39.0001C66.135 24.0382 53.9628 11.8662 39.001 11.8662Z" fill="white"/>
<path d="M39.0004 21.1597C35.161 21.1597 31.502 22.3617 28.4198 24.6359C27.8665 25.044 27.749 25.8231 28.1572 26.3764C28.5654 26.9297 29.3445 27.0473 29.8975 26.639C32.5491 24.6831 35.6967 23.6491 39.0006 23.6491C47.4652 23.6491 54.3517 30.5355 54.3517 39.0002C54.3517 47.4649 47.4652 54.3513 39.0006 54.3513C30.5359 54.3513 23.6495 47.4649 23.6495 39.0002C23.6495 35.6962 24.6834 32.5483 26.6398 29.8968C27.0478 29.3434 26.9302 28.5644 26.3772 28.1562C25.8237 27.7481 25.0449 27.8657 24.6366 28.4187C22.3623 31.5012 21.1602 35.1602 21.1602 39.0001C21.1602 48.8374 29.1634 56.8405 39.0006 56.8405C48.8377 56.8405 56.841 48.8374 56.841 39.0001C56.841 29.1628 48.8376 21.1597 39.0004 21.1597Z" fill="white"/>
</g>
<defs>
<clipPath id="clip0_585_1103">
<rect width="78" height="78" fill="white"/>
</clipPath>
</defs>
</svg>
