<svg width="48" height="45" viewBox="0 0 48 45" fill="none" xmlns="http://www.w3.org/2000/svg">
<path d="M23.6059 29.9997C21.6368 29.9997 19.6446 29.5807 18.0925 28.7617L4.14669 21.2767C2.87158 20.5975 1.82392 19.6664 1.09952 18.5684C0.375121 17.4704 -0.00290459 16.2406 1.68045e-05 14.9915C1.68045e-05 12.4394 1.55212 10.0967 4.14669 8.70637L18.1157 1.24037C21.2199 -0.416619 26.0615 -0.416619 29.1426 1.25942L43.0189 8.74446C45.5903 10.1348 47.1424 12.4775 47.1424 15.0106C47.1424 17.5437 45.5903 19.8863 43.0189 21.2767L29.1426 28.7617C27.5904 29.5997 25.5982 29.9997 23.6059 29.9997ZM23.6059 2.85928C22.2855 2.85928 20.965 3.10687 20.0152 3.64016L6.06945 11.1062C4.44784 11.9823 3.49805 13.3917 3.49805 14.9915C3.49805 16.5914 4.42468 18.0008 6.06945 18.8769L20.0152 26.3619C21.938 27.3904 25.3202 27.3904 27.243 26.3619L41.1193 18.8769C42.7409 18.0008 43.6675 16.5914 43.6675 14.9915C43.6675 13.3917 42.7409 11.9823 41.1193 11.1062L27.243 3.62111C26.27 3.12592 24.9496 2.85928 23.6059 2.85928Z" fill="#E6C100"/>
<path d="M23.3399 45.0001C22.3312 45.0001 21.2996 44.8625 20.4743 44.5874L13.1612 42.1574C9.69945 41.0111 6.97136 37.2284 6.99428 33.5833L7.01721 22.8314C7.01721 21.8915 7.79667 21.1121 8.7366 21.1121C9.67653 21.1121 10.456 21.8915 10.456 22.8314L10.4331 33.5833C10.4331 35.7383 12.2212 38.2142 14.2616 38.902L21.5747 41.3321C22.4917 41.6301 24.1882 41.6301 25.1052 41.3321L32.4183 38.902C34.4586 38.2142 36.2468 35.7383 36.2468 33.6063V22.969C36.2468 22.0291 37.0262 21.2496 37.9662 21.2496C38.9061 21.2496 39.6856 22.0291 39.6856 22.969V33.6063C39.6856 37.2514 36.9804 41.0111 33.5187 42.1803L26.2056 44.6103C25.3803 44.8625 24.3486 45.0001 23.3399 45.0001ZM44.8827 28.9571C43.9428 28.9571 43.1633 28.1776 43.1633 27.2377V13.4826C43.1633 12.5426 43.9428 11.7632 44.8827 11.7632C45.8226 11.7632 46.6021 12.5426 46.6021 13.4826V27.2377C46.6021 28.1776 45.8226 28.9571 44.8827 28.9571Z" fill="#E6C100"/>
</svg>
