<svg width="20" height="20" viewBox="0 0 20 20" fill="none" xmlns="http://www.w3.org/2000/svg">
<path d="M10.0004 11.1912C10.3418 11.1912 10.6799 11.124 10.9954 10.9933C11.3108 10.8626 11.5974 10.6711 11.8389 10.4297C12.0803 10.1883 12.2718 9.90163 12.4025 9.58619C12.5331 9.27074 12.6004 8.93265 12.6004 8.59121C12.6004 8.24977 12.5331 7.91168 12.4025 7.59623C12.2718 7.28079 12.0803 6.99417 11.8389 6.75273C11.5974 6.5113 11.3108 6.31979 10.9954 6.18912C10.6799 6.05846 10.3418 5.99121 10.0004 5.99121C9.31083 5.99121 8.64951 6.26514 8.16191 6.75273C7.67432 7.24033 7.40039 7.90165 7.40039 8.59121C7.40039 9.28077 7.67432 9.94209 8.16191 10.4297C8.64951 10.9173 9.31083 11.1912 10.0004 11.1912Z" stroke="#021969" stroke-width="1.5"/>
<path d="M3.01675 7.07533C4.65842 -0.141339 15.3501 -0.133006 16.9834 7.08366C17.9418 11.317 15.3084 14.9003 13.0001 17.117C12.1935 17.8949 11.1165 18.3297 9.99592 18.3297C8.87529 18.3297 7.79835 17.8949 6.99175 17.117C4.69175 14.9003 2.05842 11.3087 3.01675 7.07533Z" stroke="#021969" stroke-width="1.5"/>
</svg>
