<svg width="20" height="20" viewBox="0 0 20 20" fill="none" xmlns="http://www.w3.org/2000/svg">
<path d="M19.1663 19.1667L17.333 17.3334M9.54134 18.25C10.6849 18.25 11.8173 18.0248 12.8739 17.5872C13.9304 17.1495 14.8904 16.5081 15.6991 15.6994C16.5077 14.8908 17.1492 13.9308 17.5868 12.8742C18.0244 11.8177 18.2497 10.6853 18.2497 9.54171C18.2497 8.39811 18.0244 7.26572 17.5868 6.20917C17.1492 5.15263 16.5077 4.19263 15.6991 3.38399C14.8904 2.57534 13.9304 1.93389 12.8739 1.49626C11.8173 1.05862 10.6849 0.833374 9.54134 0.833374C7.23175 0.833374 5.01675 1.75086 3.38362 3.38399C1.75049 5.01712 0.833008 7.23211 0.833008 9.54171C0.833008 11.8513 1.75049 14.0663 3.38362 15.6994C5.01675 17.3326 7.23175 18.25 9.54134 18.25Z" stroke="#021869" stroke-width="1.5" stroke-linecap="round" stroke-linejoin="round"/>
</svg>
