<svg width="11" height="16" viewBox="0 0 11 16" fill="none" xmlns="http://www.w3.org/2000/svg">
<path d="M5.49597 7.16438C5.41532 7.1563 5.31855 7.1563 5.22984 7.16438C4.3042 7.13291 3.42713 6.74185 2.78438 6.07403C2.14163 5.40621 1.78366 4.51406 1.78629 3.58652C1.78629 1.60779 3.38306 0.000582734 5.36694 0.000582734C5.83662 -0.00790216 6.30338 0.0763446 6.74056 0.248513C7.17773 0.420681 7.57677 0.677399 7.91488 1.00401C8.25299 1.33062 8.52355 1.72073 8.71112 2.15205C8.89869 2.58338 8.99959 3.04749 9.00806 3.51787C9.01654 3.98825 8.93242 4.4557 8.7605 4.89352C8.58859 5.33134 8.33225 5.73097 8.00612 6.06958C7.67999 6.40819 7.29046 6.67915 6.85977 6.867C6.42907 7.05484 5.96566 7.1559 5.49597 7.16438ZM1.46371 10.1446C-0.487903 11.453 -0.487903 13.5851 1.46371 14.8855C3.68145 16.3715 7.31855 16.3715 9.53629 14.8855C11.4879 13.5771 11.4879 11.4449 9.53629 10.1446C7.32661 8.6666 3.68952 8.6666 1.46371 10.1446Z" fill="#021969"/>
</svg>
